<?xml version="1.0" encoding="UTF-8" standalone="no"?>
<!-- Created with Inkscape (http://www.inkscape.org/) -->

<svg
   xmlns:svg="http://www.w3.org/2000/svg"
   xmlns="http://www.w3.org/2000/svg"
   version="1.1"
   width="708.47998"
   height="259.67001"
   id="svg2816">
  <defs
     id="defs2820" />
  <path
     d="m 484.68328,252.56728 c -21.06105,-10.42499 -16.092,-56.21492 10.40386,-95.87181 3.49096,-5.225 7.55361,-10.98008 9.02811,-12.78908 l 2.6809,-3.28907 -3.1583,-3.25853 c -1.78019,-1.8367 -3.16497,-4.32862 -3.1736,-5.71093 -0.0303,-4.85003 -0.89969,-4.99956 -11.22337,-1.93029 -26.90388,7.99863 -38.86077,7.87578 -41.86422,-0.43013 -0.7588,-2.09841 -1.96865,-3.59197 -2.90965,-3.59197 -1.98326,0 -14.27815,3.20167 -22.86772,5.95491 -8.36585,2.68153 -17.52513,2.705 -21.86973,0.056 -4.28086,-2.61009 -4.21742,-5.59038 0.24339,-11.43436 2.43999,-3.19655 3.03926,-4.5766 1.98735,-4.5766 -1.67594,0 -8.87532,1.96589 -27.48074,7.50401 -14.82572,4.41305 -22.89607,6.28018 -32.86162,7.60275 -6.25706,0.8304 -7.73721,0.73089 -9.86488,-0.66321 -2.09491,-1.37264 -2.41371,-2.19214 -1.95423,-5.02356 0.30197,-1.86084 0.19619,-3.60142 -0.23507,-3.86795 -0.43126,-0.26654 -5.65063,1.09297 -11.5986,3.02112 -35.4423,11.48933 -51.96921,14.43141 -57.2356,10.18892 -1.92249,-1.54871 -1.50025,-4.47892 1.34502,-9.33401 2.06557,-3.52457 2.28142,-4.42802 1.05798,-4.42802 -1.31925,0 -12.49855,3.38076 -28.49255,8.6165 -2.38676,0.78132 -7.40106,1.94557 -11.1429,2.58722 -5.99283,1.02766 -7.11395,0.96313 -9.41045,-0.54159 -2.98462,-1.9556 -3.18337,-3.34715 -1.16725,-8.17241 0.79191,-1.89532 1.11779,-3.64508 0.72417,-3.88835 -0.39363,-0.24328 -3.17906,0.36659 -6.18985,1.35525 -29.68531,9.74785 -41.41002,12.95175 -50.27643,13.73857 -5.95285,0.52827 -7.1653,0.33524 -9.70951,-1.54577 -1.59899,-1.18218 -3.58359,-2.14942 -4.41022,-2.14942 -2.26635,0 -12.57801,4.03119 -12.57801,4.91718 0,0.42541 4.1625,2.00717 9.25,3.51501 9.46633,2.80564 20.48951,8.13038 24.49514,11.83236 3.66918,3.39104 7.25432,11.62907 7.25981,16.68179 0.0119,10.91837 -6.39986,19.70998 -17.58614,24.11373 -4.7608,1.8742 -7.61453,2.29945 -14.58595,2.17354 -10.9963,-0.1986 -18.82365,-2.73659 -29.08391,-9.43037 l -7.75105,-5.05677 -13.248945,-0.23225 c -11.17465,-0.19589 -14.47619,-0.63832 -21.08759,-2.82587 -12.20954,-4.03984 -22.07451,-11.30653 -24.66196,-18.16636 -0.6178,-1.63791 -1.00849,-5.45596 -0.8682,-8.48457 l 0.25507,-5.50655 -6.94313,-2.56789 C 15.50253,134.10613 4.1111597,123.16347 5.0542697,112.00593 6.1458997,99.091379 22.644615,91.955975 48.979565,93.009015 c 18.93865,0.75729 34.27946,5.202854 47.72281,13.829435 l 4.781645,3.06837 4.74777,-5.26346 c 2.61127,-2.8949 5.38839,-6.204961 6.17137,-7.355681 0.78298,-1.15071 6.44195,-8.842214 12.57549,-17.092214 6.13353,-8.25 15.06483,-20.4 19.84733,-27 4.78249,-6.6 10.68371,-14.475 13.11383,-17.5 2.43011,-3.025 5.62923,-7.525 7.10916,-9.99999 5.5392,-9.26365 11.98872,-16.96327 16.02604,-19.13231 4.40408,-2.366092 7.40796,-2.020622 7.39897,0.85093 -0.0214,6.84335 -5.64809,15.64362 -8.49269,13.28282 -0.77777,-0.64549 -1.83054,-0.91626 -2.33949,-0.60171 -1.51112,0.93393 -20.08806,24.24125 -28.77345,36.10026 -12.49171,17.05616 -26.38879,38.08666 -26.38879,39.934264 0,1.20286 2.5465,0.42607 10.86792,-3.315194 4.74765,-2.13451 10.82698,-4.62365 13.50963,-5.53144 4.42587,-1.49767 5.09724,-1.50656 7.25,-0.096 3.64601,2.38897 2.89347,4.89815 -2.87755,9.594554 -8.16762,6.646731 -13.7135,12.163881 -13.14762,13.079491 0.28361,0.45889 3.20322,0.83435 6.48802,0.83435 6.36295,0 8.3648,1.54167 5.88372,4.53119 -2.42606,2.92322 -17.56197,8.45904 -23.19257,8.48246 -4.71266,0.0196 -7.55613,0.95653 -8.22963,2.71164 -0.85572,2.22998 1.28013,4.27471 4.46519,4.27471 4.88845,0 32.68246,-9.35398 37.98289,-12.78301 8.88498,-5.748 22.37098,-10.88718 36.7474,-14.00353 8.03785,-1.74234 9.38718,-1.8075 11.19596,-0.54058 4.54727,3.18503 1.65829,5.97593 -9.70524,9.37572 -4.91853,1.47155 -7.10122,3.4883 -5.50398,5.08554 0.98708,0.98708 20.08622,-3.83969 36.26586,-9.16518 12.14272,-3.99675 28.92504,-8.2117 30.41672,-7.63929 0.8708,0.33416 1.58328,1.46627 1.58328,2.5158 0,2.33854 -4.52703,4.35521 -22.53851,10.04031 -14.1926,4.47972 -21.17962,8.70129 -18.66565,11.27782 1.07519,1.10194 3.88488,0.66546 16.5,-2.56321 8.36229,-2.14021 21.05416,-5.79556 28.20416,-8.123 25.36372,-8.25633 42.08474,-13.47741 43.16265,-13.47741 0.60085,0 1.69547,0.72658 2.43247,1.61462 1.14853,1.38389 1.0096,1.88216 -0.97222,3.48694 -1.27172,1.02978 -4.04801,2.33973 -6.16953,2.911 -5.39394,1.45243 -24.58092,10.05951 -29.76659,13.35298 -2.80947,1.78432 -4.19768,3.3312 -3.9818,4.43692 0.88313,4.52339 28.29222,-0.38731 52.79502,-9.45892 5.225,-1.93444 11.3,-3.85885 13.5,-4.27646 5.36417,-1.01824 19.73383,-5.51163 30.88964,-9.65918 l 9.0924,-3.380411 2.47262,2.472621 c 1.58512,1.58513 2.12674,2.81778 1.50898,3.43427 -0.53,0.5289 -7.12935,2.54142 -14.66522,4.47225 -14.78208,3.78745 -23.06399,7.35256 -24.85516,10.69938 -1.94262,3.62983 0.14524,4.01345 10.11036,1.85763 5.19551,-1.12398 12.82138,-2.73739 16.94638,-3.58536 4.125,-0.84797 10.425,-2.14472 14,-2.88167 3.575,-0.73695 14.825,-3.19512 25,-5.46261 34.76149,-7.74656 32,-7.40236 32,-3.98865 0,1.85097 -0.76209,2.20509 -14.80505,6.87945 -16.26674,5.41458 -23.83073,10.29358 -21.52415,13.88374 0.76061,1.18387 2.39847,1.6731 5.45796,1.63028 4.82757,-0.0676 26.76817,-5.54361 33.93095,-8.46866 2.50783,-1.02412 5.65783,-2.06165 7,-2.30562 1.34216,-0.24397 5.36529,-1.14889 8.94029,-2.01094 16.88159,-4.0707 30.77397,-7.005 33.5,-7.07574 2.32006,-0.0602 3.0682,0.39982 3.30089,2.02974 0.37294,2.61228 -1.39072,3.32948 -16.88107,6.86476 -10.91671,2.49146 -17.91982,5.37968 -17.91982,7.3905 0,0.49074 0.67744,1.45447 1.50542,2.14164 1.99002,1.65157 4.89585,1.1395 34.36016,-6.05499 15.12497,-3.69317 26.51084,-5.94951 30.02216,-5.94951 4.82804,0 6.19758,-0.44595 9.35019,-3.04459 12.93256,-10.66011 34.87297,-21.128265 47.35886,-22.595735 4.64513,-0.54595 5.32222,-0.37954 6.36217,1.56365 3.88424,7.257754 -11.82839,22.823145 -34.02918,33.710325 -10.75732,5.27535 -22.72945,9.76562 -30.14763,11.30718 -5.29291,1.09991 -6.19267,1.72222 -12.10698,8.37369 -6.51389,7.32578 -17.67517,22.88543 -17.67517,24.64049 0,0.58435 2.48382,0.74071 6.25,0.39343 3.4375,-0.31696 10.3,0.0198 15.25,0.74847 14.0279,2.06485 21.00984,1.68398 28.18875,-1.53772 6.62577,-2.97347 10.31125,-2.79662 10.31125,0.49478 0,2.35476 -3.7265,4.01756 -14.25,6.35848 -4.2625,0.94819 -7.75,1.89847 -7.75,2.11175 0,0.21329 1.35353,2.68337 3.00784,5.48909 7.38433,12.52386 6.49709,28.39462 -2.49139,44.56569 -10.91397,19.63518 -34.8753,31.4392 -49.31273,24.29283 z m 20.27869,-5.41736 c 18.08664,-6.14057 33.43888,-29.84951 31.0494,-47.95058 -0.7532,-5.70577 -5.95167,-16.98412 -8.72315,-18.92534 -1.31779,-0.92301 -3.08531,-1.06345 -6.08309,-0.48334 -5.89477,1.14072 -15.09459,1.09521 -18.2122,-0.0901 -1.43925,-0.5472 -3.93148,-2.43427 -5.53827,-4.19349 -1.6068,-1.75921 -3.07939,-2.999 -3.27244,-2.75508 -1.91872,2.42441 -7.04376,11.93713 -9.18535,17.04918 -8.73494,20.85056 -10.06933,42.23189 -3.25537,52.16171 4.23897,6.17734 13.9284,8.34179 23.22047,5.18705 z m -350.6994,-61.13665 c 2.49523,-1.54979 6.03983,-5.00444 7.87688,-7.67699 7.45962,-10.85227 2.48634,-23.69995 -11.55696,-29.85558 -5.86667,-2.57155 -13.81556,-4.75809 -17.35293,-4.77336 -2.33487,-0.0101 -2.75084,0.40326 -2.75558,2.73813 -0.007,3.34835 -1.61836,9.64409 -3.55839,13.90114 -1.97531,4.33447 -9.648,11.68976 -14.45577,13.85776 -2.18914,0.98717 -3.97939,2.06401 -3.97833,2.39297 0.002,0.66638 8.15586,6.22677 11.91962,8.12854 11.15179,5.63484 25.9557,6.19768 33.86146,1.28739 z M 93.729565,171.01158 c 1.56755,-0.90739 0.60669,-3.29077 -3.66729,-9.09655 -4.70056,-6.38527 -13.93805,-13.62297 -22.37726,-17.53292 -5.01768,-2.32472 -5.2641,-2.34222 -11.41691,-0.81085 -7.66978,1.90892 -6.84086,1.34916 -7.41769,5.00916 -1.41756,8.99454 10.27975,19.02714 26.22345,22.49144 6.12118,1.33003 16.31079,1.29711 18.6557,-0.0603 z m 17.002025,-2.74286 c 11.33798,-4.04613 17.55226,-14.47289 13.45349,-22.57325 -1.24363,-2.45778 -1.46794,-2.5 -13.28086,-2.5 -11.627585,0 -12.227475,-0.10731 -18.565335,-3.32098 l -6.54949,-3.32099 -5.15492,1.68609 c -2.8352,0.92735 -5.141,1.97179 -5.12399,2.32098 0.017,0.3492 2.15451,2.20547 4.75,4.12505 6.99473,5.17318 15.05197,13.81225 18.42903,19.75985 3.303795,5.81857 4.969175,6.34731 12.042075,3.82325 z M 79.664355,131.20898 c 8.8058,-2.49995 9.58231,-2.91358 8.55572,-4.55741 -0.83806,-1.34195 -0.8385,-2.44562 -0.002,-4.28224 1.47174,-3.23012 0.85991,-3.68642 -4.10925,-3.06462 -14.86385,1.85995 -25.75382,4.81767 -33.62958,9.1338 -7.51029,4.11584 -7.87762,4.6838 -3.41527,5.28053 9.55892,1.27827 22.86475,0.25378 32.60006,-2.51006 z m -40.83473,-3.35712 c 16.16842,-7.62524 26.01988,-10.63144 44.89994,-13.70136 5.9125,-0.96138 10.75,-2.12447 10.75,-2.58465 0,-2.3692 -18.0558,-9.27584 -32.5,-12.431771 -24.80947,-5.420654 -50.517845,2.143991 -50.496265,14.858441 0.005,2.77528 3.40883,8.42627 6.707145,11.13414 2.76067,2.26648 10.28687,6.49583 11.63918,6.54064 0.46754,0.0155 4.51754,-1.70146 9,-3.81544 z m 70.649935,1.73662 c 0,-1.14261 -2.71175,-1.16842 -3.4138,-0.0325 -0.2925,0.47329 -0.27507,1.11728 0.0388,1.4311 0.78033,0.78039 3.375,-0.29484 3.375,-1.3986 z m 407.70239,-2.08918 c 4.0215,-3.89778 4.1196,-4.80383 0.52012,-4.80383 -3.46989,0 -7.22251,2.54073 -7.22251,4.89004 0,4.10226 2.41301,4.07123 6.70239,-0.0862 z m -342.71222,-5.05383 c 0.013,-2.30813 -1.40412,-2.20735 -6.10402,0.43414 -5.77505,3.24576 -5.11202,5.02907 1.10402,2.96937 3.44625,-1.14193 4.99321,-2.19495 5,-3.40351 z m 370.33269,1.80005 c 9.4729,-3.34295 19.8563,-9.49285 28.95758,-17.15104 10.9153,-9.184591 10.52593,-12.312495 -1.1028,-8.859121 -11.25503,3.342381 -25.8984,12.454531 -35.14875,21.872051 l -6.47111,6.58806 3.47111,-0.0211 c 1.90911,-0.0116 6.5414,-1.10459 10.29397,-2.42886 z m -441.86234,-1.098 c 3.06482,-1.28056 3.49661,-1.79878 2.49968,-3 -0.6628,-0.79863 -1.74655,-1.45205 -2.40833,-1.45205 -1.62716,0 -5.742145,4.47638 -4.894345,5.32419 0.86113,0.86113 0.49602,0.92743 4.802995,-0.87214 z m 81.32253,-3.2862 c 0.29877,-0.9065 -0.29208,-1.22704 -1.84334,-1 -1.25568,0.18378 -2.48092,0.93452 -2.72276,1.6683 -0.29877,0.9065 0.29208,1.22704 1.84334,1 1.25568,-0.18378 2.48092,-0.93452 2.72276,-1.6683 z m -62.84316,-6.22215 c 16.91979,-10.46199 27.68793,-19.943705 22.64953,-19.943705 -5.2877,0 -32.8961,15.029675 -34.2924,18.668355 -0.57724,1.50428 2.32855,5.33165 4.04785,5.33165 0.5692,0 3.98695,-1.82534 7.59502,-4.0563 z m 468.06011,44.39843 c -3.12996,-1.09014 -9.30129,-1.6711 -20.27024,-1.90821 -8.67363,-0.18749 -16.21113,-0.61339 -16.75,-0.94643 -2.01967,-1.24822 -0.97782,-4.53773 1.77024,-5.58932 5.13377,-1.96452 34.13983,0.77441 42.56934,4.01965 2.11903,0.81579 2.74002,1.64389 2.5,3.33379 -0.40567,2.8562 -3.69949,3.222 -9.81934,1.09052 z m 57.99999,-28.434 c -7.20652,-3.27967 -23.67823,-6.91166 -34.47002,-7.60059 l -9.97,-0.63647 2.64826,-1.97722 c 5.57703,-4.16385 17.48223,-7.23926 35.29535,-9.11766 2.75197,-0.29019 6.35197,-0.75776 8,-1.03905 1.64803,-0.28128 4.34641,-0.69314 5.99641,-0.91524 1.65,-0.2221 12.50462,-2.32324 24.12139,-4.6692 11.61676,-2.34596 21.85426,-3.984151 22.75,-3.64043 0.89573,0.34373 1.62861,1.50694 1.62861,2.58492 0,3.67034 -2.44971,4.7639 -12.16502,5.43051 -22.53974,1.54655 -61.40539,9.20843 -55.83498,11.00718 0.825,0.2664 4.52412,1.2017 8.22027,2.07845 7.96641,1.88967 13.14636,4.57014 13.62812,7.05213 0.74141,3.81963 -3.3186,4.41437 -9.84839,1.44267 z"
     id="path2828"
     style="fill:#000000" />
</svg>
